<svg xmlns="http://www.w3.org/2000/svg" width="200" height="200" fill="none" viewBox="0 0 200 200"><g clip-path="url(#clip0_4294_1111)"><path fill="#FFE4D8" d="m73.532 189.067-61.197-61.809c-14.528-14.673-14.528-38.794 0-53.467l61.197-61.81c14.528-14.673 38.211-14.673 52.838 0l61.297 61.81c14.528 14.673 14.528 38.593 0 53.366l-61.297 61.91c-14.428 14.573-38.31 14.573-52.838 0Z"/><path fill="#81D6D9" d="M98.165 63.363 58.5 86.436a5.805 5.805 0 0 0-2.868 5.02v45.469c0 2.124 1.147 4.055 2.868 5.02l39.475 22.783c1.816 1.062 3.919 1.062 5.735 0l39.476-22.783a5.805 5.805 0 0 0 2.867-5.02V91.552a5.804 5.804 0 0 0-2.867-5.02L103.9 63.46c-1.72-1.158-3.919-1.158-5.735-.096Z"/><path fill="#C94745" d="m55.82 88.178 45.402-26.451 45.02 26.451-45.211 26.065-45.21-26.065Z"/><path fill="#C94745" d="m101.031 61.82-45.21 26.355 45.21 26.066v-52.42Z"/><path fill="#FFA8A5" d="M100.839 114.245v52.227l42.343-24.424c1.816-1.062 2.868-2.896 2.868-5.02V88.18l-45.211 26.065Z"/><path fill="#FFC0BD" d="M100.842 114.245 55.632 88.18v49.524c0 1.641.86 3.186 2.293 4.054l42.917 24.714v-52.227Z"/><path fill="#FF8D8C" d="m55.632 88.176-18.83-7.434c-.86-.386-.956-1.544-.191-2.027L78.954 54.29c.86-.483 1.816-.58 2.676-.193l19.403 7.626-45.401 26.452ZM101.033 61.72l18.543-7.144c1.624-.58 3.345-.483 4.874.386l40.623 23.073c1.051.58.956 2.22-.191 2.703l-18.83 7.53-45.019-26.548Z"/><path fill="#FF7F7D" d="M100.839 114.245c.191 0 12.33 14.577 17.587 21.045 1.434 1.738 3.824 2.124 5.831 1.062l21.697-12.646.096-35.526-45.211 26.065Z"/><path fill="#FF8D8C" d="M100.842 114.245c-.191 0-12.33 14.577-17.588 21.045-1.433 1.738-3.823 2.124-5.83 1.062l-21.697-12.646-.096-35.526 45.211 26.065Z"/><path fill="#FFA8A5" d="m100.839 114.245 19.595 15.832c1.051.869 2.58.966 3.727.29l40.336-22.976c1.625-.869 1.721-3.089.287-4.248l-18.83-14.963-45.115 26.065Z"/><path fill="#FFC0BD" d="m55.63 88.18 45.211 26.065-17.874 15.639c-1.051.966-2.676 1.062-3.919.386l-41.387-23.748c-1.147-.676-1.242-2.317-.287-3.089L55.631 88.18Z"/><path fill="#fff" d="M51.506 20.172 71.218 13l15.279 53.276-34.991-46.104ZM103.598-.77c1.111.04 34.685 4.858 34.685 4.858l-9.191 25.823 18.78 3.734-45.214 45.859 11.685-37.119-22.613-5.857L103.598-.77Z"/></g><defs><clipPath id="clip0_4294_1111"><path fill="#fff" d="M0-.008h200v200H0z"/></clipPath></defs></svg>